<!DOCTYPE svg PUBLIC "-//W3C//DTD SVG 20010904//EN" "http://www.w3.org/TR/2001/REC-SVG-20010904/DTD/svg10.dtd">
<svg version="1.0" xmlns="http://www.w3.org/2000/svg" width="50px" height="50px" viewBox="0 0 500 500" preserveAspectRatio="xMidYMid meet">
<g id="layer101" fill="#0199e6" stroke="none">
 <path d="M37 494 c-4 -4 -7 -61 -7 -126 0 -100 -2 -118 -15 -118 -13 0 -15 -11 -13 -62 l3 -63 245 0 245 0 3 63 c2 50 0 62 -12 62 -13 0 -16 21 -18 123 l-3 122 -211 3 c-115 1 -213 -1 -217 -4z m183 -134 l0 -110 -75 0 -75 0 0 110 0 110 75 0 75 0 0 -110z m210 0 l0 -110 -70 0 -70 0 0 110 0 110 70 0 70 0 0 -110z m-210 -170 l0 -30 -95 0 -95 0 0 30 0 30 95 0 95 0 0 -30z m250 0 l0 -30 -90 0 -90 0 0 30 0 30 90 0 90 0 0 -30z"/>
 <path d="M82 84 c-24 -17 -29 -53 -10 -72 17 -17 100 -15 124 3 25 19 83 19 108 0 24 -18 107 -20 124 -3 19 19 14 55 -10 72 -33 23 -303 23 -336 0z m93 -34 c-3 -5 -22 -10 -41 -10 -21 0 -33 4 -29 10 3 6 22 10 41 10 21 0 33 -4 29 -10z m220 0 c8 -13 -45 -13 -65 0 -11 7 -6 10 22 10 20 0 40 -4 43 -10z"/>
 </g>

</svg>