<!DOCTYPE svg PUBLIC "-//W3C//DTD SVG 20010904//EN" "http://www.w3.org/TR/2001/REC-SVG-20010904/DTD/svg10.dtd">
<svg version="1.0" xmlns="http://www.w3.org/2000/svg" width="50px" height="50px" viewBox="0 0 500 500" preserveAspectRatio="xMidYMid meet">
<g id="layer101" fill="#0199e6" stroke="none">
 <path d="M145 481 c-92 -41 -145 -126 -145 -231 0 -148 102 -250 250 -250 148 0 250 102 250 250 0 105 -53 190 -145 231 -54 25 -156 25 -210 0z m226 -56 c64 -45 91 -104 87 -187 -4 -82 -39 -139 -108 -176 -38 -20 -56 -23 -112 -20 -82 4 -139 39 -176 108 -20 38 -23 56 -20 112 4 82 39 139 108 176 38 20 56 23 112 20 55 -3 75 -9 109 -33z"/>
 <path d="M124 365 c-3 -8 3 -27 15 -43 11 -17 30 -50 40 -76 17 -39 28 -50 73 -70 29 -14 65 -33 80 -43 22 -14 30 -15 40 -5 10 10 9 18 -5 40 -10 15 -29 51 -43 80 -20 45 -31 56 -70 73 -26 10 -59 28 -74 39 -33 24 -49 25 -56 5z m146 -101 c11 -12 10 -18 -3 -32 -16 -15 -18 -15 -34 0 -13 14 -14 20 -3 32 7 9 16 16 20 16 4 0 13 -7 20 -16z"/>
 </g>

</svg>